PathFileType	4	(x/y/z)	S06_M20_T18
DataRate	CameraRate	NumFrames	NumMarkers	Units	OrigDataRate	OrigDataStartFrame	OrigNumFrames
240	240	6	51	mm	240	121	481
Frame#	Time	Sternum			R.Acromium			L.Acromium			Top.Head			R.ASIS			L.ASIS			R.PSIS			L.PSIS			R.Great.Tro			L.Great.Tro			R.Iliac.Crest			L.Iliac.Crest			V.Sacral			R.Thigh.Upper.Post			R.Thigh.Lower.Ant			R.Thigh.Lower.Post			R.Thigh.Upper.Ant			R.Knee.Lat			R.Knee.Med			R.Shank.Upper.Post			R.Shank.Lower.Ant			R.Shank.Lower.Post			R.Shank.Upper.Ant			R.Ankle.Lat			R.Ankle.Med			R.Heel.Upper			R.Heel.Med			R.Heel.Lat			R.Toe.Lat			R.Toe.Med			R.Toe.Tip			L.Thigh.Upper.Post			L.Thigh.Lower.Ant			L.Thigh.Lower.Post			L.Thigh.Upper.Ant			L.Knee.Lat			L.Knee.Med			L.Shank.Upper.Post			L.Shank.Lower.Ant			L.Shank.Lower.Post			L.Shank.Upper.Ant			L.Ankle.Lat			L.Ankle.Med			L.Heel.Upper			L.Heel.Med			L.Heel.Lat			L.Toe.Lat			L.Toe.Med			L.Toe.Tip			Cervical.Spine			Back			
		X1	Y1	Z1	X2	Y2	Z2	X3	Y3	Z3	X4	Y4	Z4	X5	Y5	Z5	X6	Y6	Z6	X7	Y7	Z7	X8	Y8	Z8	X9	Y9	Z9	X10	Y10	Z10	X11	Y11	Z11	X12	Y12	Z12	X13	Y13	Z13	X14	Y14	Z14	X15	Y15	Z15	X16	Y16	Z16	X17	Y17	Z17	X18	Y18	Z18	X19	Y19	Z19	X20	Y20	Z20	X21	Y21	Z21	X22	Y22	Z22	X23	Y23	Z23	X24	Y24	Z24	X25	Y25	Z25	X26	Y26	Z26	X27	Y27	Z27	X28	Y28	Z28	X29	Y29	Z29	X30	Y30	Z30	X31	Y31	Z31	X32	Y32	Z32	X33	Y33	Z33	X34	Y34	Z34	X35	Y35	Z35	X36	Y36	Z36	X37	Y37	Z37	X38	Y38	Z38	X39	Y39	Z39	X40	Y40	Z40	X41	Y41	Z41	X42	Y42	Z42	X43	Y43	Z43	X44	Y44	Z44	X45	Y45	Z45	X46	Y46	Z46	X47	Y47	Z47	X48	Y48	Z48	X49	Y49	Z49	X50	Y50	Z50	X51	Y51	Z51	

121	0.5	-963.45	1284.7	303.84	-1095.4	1491.4	468.02	-1097.4	1492.1	118.31	-1016.3	1802.8	286.86	-1004.4	1051.5	423.54	-999.6	1045.9	170.24	-1203.2	1064.8	329.33	-1207.4	1072.7	249.51	-1051.5	975.03	473.43	-1105.8	980.22	116.55	-1094.3	1120.2	456	-1073.6	1120.5	134.69	-1220.3	1034.5	291.7	-952.23	746.5	465.54	-873.66	694.58	426.92	-931.25	661.53	446.75	-895.16	782.62	439.17	-865.97	571.71	437.32	-870.53	570.16	307.42	-872.95	342.37	444.62	-802.6	288.67	427.06	-864.15	265.38	433.43	-813.28	364.32	436.87	-807.51	137.61	413.29	-792.79	149.11	330.02	-853.94	72.319	363.53	-831.58	48.783	333.55	-834.59	44.347	397.6	-668.02	97.915	442.9	-647.02	123.88	328.01	-593.7	160.15	376.01	-1114.8	722.53	151.25	-1084.2	633.3	208.87	-1154	642.89	173.34	-1049.4	718.59	182.66	-1200	552.62	193.57	-1167.9	556.67	312.77	-1295	336.31	220.25	-1242.2	264.34	221.55	-1313	267.63	241.47	-1229.2	332.14	205.78	-1291	120.7	248.91	-1273.3	142.78	333.99	-1374.4	89.962	294.97	-1374.8	63.173	326.24	-1369.8	65.407	264.69	-1192.2	45.106	229.9	-1174.3	43.647	348.03	-1098.4	45.271	295.38	-1145.8	1544.6	292.39	-1212	1271.6	289.89
122	0.50417	-957.86	1283.8	303.75	-1089.9	1490.6	468.12	-1092.2	1491.4	118.42	-1010.8	1802.1	287.16	-998.63	1050.7	423.5	-994.27	1045	170.02	-1198.5	1064.2	329.6	-1201.9	1071.9	249.83	-1045.8	974.24	473.37	-1100.8	979.53	116.62	-1088.3	1119.4	456.03	-1068.4	1119.6	134.69	-1214.8	1033.7	292.06	-947.37	745.34	465.42	-868.94	693.21	426.52	-926.61	660.29	446.4	-890.16	781.28	438.93	-861.24	570.58	436.75	-865.83	569.07	306.76	-863.91	341.08	443.33	-792.44	288.83	425.81	-853.51	264.31	431.89	-804.67	364.24	435.85	-794.1	137.67	411.57	-779.29	149.93	328.4	-838.8	71.494	361.38	-815.82	48.688	331.26	-818.89	43.72	395.28	-653.6	100.77	441.14	-633.14	128.29	326.62	-580.71	165.46	374.99	-1111.3	722.13	151.21	-1081	632.65	208.63	-1150.8	642.7	173.38	-1045.7	717.82	182.36	-1197.2	552.64	193.69	-1164.9	556.46	312.73	-1293.4	336.83	220.5	-1241	264.56	221.73	-1311.8	268.23	241.75	-1227.7	332.3	205.94	-1290.5	121.19	249.15	-1272.7	143.17	334.23	-1374	90.724	295.19	-1374.5	63.921	326.43	-1369.6	66.243	264.89	-1192.1	45.167	229.98	-1174.2	43.562	348.14	-1098.3	45.075	295.45	-1140.3	1543.9	292.53	-1206.5	1270.8	289.98
123	0.50833	-952.26	1282.9	303.66	-1084.4	1489.7	468.21	-1086.8	1490.7	118.52	-1005.3	1801.3	287.46	-992.84	1049.8	423.45	-988.88	1044	169.81	-1194.1	1063.6	329.85	-1196.4	1071.1	250.17	-1040.1	973.45	473.3	-1095.8	978.84	116.7	-1082.3	1118.6	456.06	-1063.1	1118.7	134.69	-1209.2	1032.9	292.44	-942.58	744.13	465.3	-864.28	691.78	426.15	-922.02	659.02	446.05	-885.19	779.89	438.73	-856.63	569.39	436.15	-861.17	567.97	306.09	-855.03	339.82	442.02	-782.47	289.02	424.56	-843.06	263.31	430.32	-796.23	364.17	434.83	-780.93	137.84	409.84	-766.02	150.84	326.77	-823.91	70.84	359.19	-800.32	48.77	328.93	-803.45	43.272	392.93	-639.53	103.71	439.46	-619.57	132.74	325.3	-568.05	170.76	374.07	-1107.7	721.74	151.18	-1077.7	632.01	208.37	-1147.5	642.52	173.4	-1042.1	717.05	182.06	-1194.4	552.68	193.79	-1161.8	556.25	312.68	-1291.8	337.37	220.75	-1239.8	264.81	221.9	-1310.5	268.88	242.01	-1226.1	332.48	206.08	-1290.1	121.7	249.36	-1272	143.58	334.45	-1373.5	91.536	295.39	-1374.3	64.724	326.6	-1369.3	67.123	265.07	-1192	45.223	230.06	-1174	43.492	348.25	-1098.1	44.887	295.5	-1134.7	1543.1	292.67	-1201	1270	290.09
124	0.5125	-946.63	1282	303.57	-1078.9	1488.8	468.31	-1081.5	1490	118.63	-999.8	1800.6	287.78	-987.03	1048.9	423.38	-983.45	1043.1	169.62	-1190.1	1063	330.09	-1190.7	1070.3	250.53	-1034.3	972.64	473.24	-1090.8	978.17	116.78	-1076.3	1117.8	456.11	-1057.8	1117.8	134.72	-1203.6	1032.1	292.82	-937.83	742.88	465.2	-859.66	690.32	425.8	-917.5	657.7	445.69	-880.25	778.46	438.56	-852.11	568.16	435.52	-856.53	566.86	305.4	-846.3	338.6	440.69	-772.71	289.24	423.3	-832.8	262.37	428.71	-787.95	364.1	433.8	-768.01	138.1	408.09	-753	151.86	325.13	-809.28	70.349	356.97	-785.09	49.016	326.59	-788.3	42.992	390.56	-625.82	106.69	437.85	-606.32	137.21	324.05	-555.74	176.02	373.26	-1104.1	721.37	151.14	-1074.4	631.37	208.1	-1144.2	642.36	173.42	-1038.4	716.3	181.75	-1191.5	552.74	193.89	-1158.6	556.04	312.63	-1290.1	337.94	220.97	-1238.6	265.08	222.04	-1309.1	269.55	242.25	-1224.5	332.69	206.21	-1289.6	122.24	249.55	-1271.3	144.03	334.65	-1373.1	92.403	295.56	-1374	65.584	326.76	-1369	68.049	265.23	-1191.9	45.276	230.12	-1173.9	43.438	348.35	-1098	44.706	295.56	-1129.1	1542.3	292.81	-1195.4	1269.2	290.21
125	0.51667	-940.97	1281.1	303.48	-1073.3	1487.9	468.42	-1076.1	1489.2	118.74	-994.27	1799.8	288.1	-981.19	1048.1	423.31	-977.97	1042.2	169.44	-1186.4	1062.5	330.3	-1185.1	1069.4	250.89	-1028.6	971.83	473.18	-1085.7	977.51	116.87	-1070.4	1117	456.17	-1052.4	1116.9	134.75	-1198	1031.4	293.22	-933.13	741.59	465.1	-855.07	688.82	425.46	-913.04	656.36	445.32	-875.35	776.99	438.42	-847.7	566.88	434.86	-851.91	565.74	304.68	-837.74	337.42	439.34	-763.14	289.48	422.05	-822.73	261.5	427.08	-779.84	364.04	432.77	-755.37	138.45	406.33	-740.22	152.95	323.49	-794.93	70.008	354.72	-770.15	49.413	324.23	-773.46	42.865	388.18	-612.47	109.72	436.33	-593.38	141.67	322.88	-543.77	181.22	372.55	-1100.4	721.02	151.09	-1071.1	630.75	207.82	-1140.9	642.21	173.43	-1034.6	715.56	181.44	-1188.6	552.82	193.97	-1155.3	555.84	312.57	-1288.4	338.53	221.18	-1237.3	265.38	222.17	-1307.7	270.27	242.47	-1222.8	332.92	206.32	-1289.1	122.82	249.72	-1270.6	144.51	334.81	-1372.6	93.328	295.72	-1373.7	66.503	326.9	-1368.7	69.021	265.37	-1191.7	45.325	230.18	-1173.8	43.4	348.44	-1097.9	44.531	295.61	-1123.5	1541.6	292.96	-1189.8	1268.4	290.34
126	0.52083	-935.29	1280.3	303.4	-1067.7	1487.1	468.53	-1070.7	1488.5	118.86	-988.7	1799.1	288.43	-975.34	1047.2	423.23	-972.46	1041.3	169.28	-1183.1	1062	330.5	-1179.3	1068.6	251.26	-1022.8	971.01	473.12	-1080.6	976.86	116.96	-1064.4	1116.2	456.24	-1047	1116	134.8	-1192.3	1030.6	293.62	-928.47	740.27	465.01	-850.52	687.28	425.14	-908.62	654.99	444.92	-870.47	775.48	438.32	-843.36	565.57	434.16	-847.3	564.64	303.95	-829.34	336.27	437.97	-753.77	289.74	420.79	-812.86	260.68	425.42	-771.9	363.98	431.73	-743.01	138.86	404.58	-727.71	154.12	321.86	-780.87	69.806	352.47	-755.53	49.946	321.87	-758.93	42.878	385.8	-599.49	112.77	434.88	-580.77	146.1	321.77	-532.14	186.34	371.92	-1096.7	720.68	151.05	-1067.7	630.14	207.54	-1137.4	642.08	173.42	-1030.8	714.84	181.13	-1185.6	552.91	194.05	-1152	555.64	312.51	-1286.6	339.16	221.37	-1236	265.7	222.28	-1306.3	271.02	242.66	-1221.1	333.17	206.41	-1288.6	123.43	249.86	-1269.9	145.03	334.96	-1372.1	94.315	295.86	-1373.4	67.482	327.01	-1368.3	70.042	265.48	-1191.6	45.372	230.23	-1173.6	43.38	348.52	-1097.8	44.363	295.65	-1118	1540.9	293.12	-1184.1	1267.6	290.48
